<?xml version="1.0" standalone="no"?>
<!DOCTYPE svg PUBLIC "-//W3C//DTD SVG 20010904//EN"
 "http://www.w3.org/TR/2001/REC-SVG-20010904/DTD/svg10.dtd">
<svg version="1.0" xmlns="http://www.w3.org/2000/svg"
 width="500.000000pt" height="500.000000pt" viewBox="0 0 500.000000 500.000000"
 preserveAspectRatio="xMidYMid meet">

<g transform="translate(0.000000,500.000000) scale(0.100000,-0.100000)"
fill="#000000" stroke="none">
<path d="M1625 2423 c-73 -20 -95 -64 -95 -188 0 -146 33 -189 145 -189 42 0
68 5 88 18 31 21 57 64 57 96 0 17 -6 20 -39 20 -34 0 -42 -4 -53 -27 -11 -24
-20 -28 -53 -28 -50 0 -65 25 -65 110 0 85 15 110 65 110 33 0 42 -4 53 -27
11 -24 19 -28 53 -28 33 0 39 3 39 20 0 31 -26 75 -55 94 -27 18 -106 29 -140
19z"/>
<path d="M2520 2365 c0 -28 -4 -35 -20 -35 -17 0 -20 -7 -20 -40 0 -33 3 -40
20 -40 18 0 20 -7 20 -83 0 -107 9 -121 81 -122 l54 0 0 35 c0 28 -4 35 -25
40 -23 5 -25 11 -28 68 l-3 62 31 0 c28 0 30 2 30 40 0 38 -2 40 -30 40 -28 0
-30 3 -30 35 0 34 -1 35 -40 35 -39 0 -40 -1 -40 -35z"/>
<path d="M3340 2365 c0 -28 -4 -35 -20 -35 -17 0 -20 -7 -20 -40 0 -33 3 -40
20 -40 18 0 20 -7 20 -83 0 -107 9 -121 81 -122 l54 0 0 35 c0 28 -4 35 -25
40 -23 5 -25 11 -28 68 l-3 62 31 0 c28 0 30 2 30 40 0 38 -2 40 -30 40 -28 0
-30 3 -30 35 0 34 -1 35 -40 35 -39 0 -40 -1 -40 -35z"/>
<path d="M1955 2323 c-37 -10 -63 -34 -80 -76 -46 -116 50 -233 163 -199 50
15 81 50 93 102 26 113 -64 201 -176 173z m89 -110 c13 -49 -8 -93 -45 -93
-32 0 -49 23 -49 65 0 46 18 67 53 63 26 -2 33 -9 41 -35z"/>
<path d="M2180 2185 l0 -145 45 0 45 0 0 89 c0 109 4 121 40 121 36 0 40 -12
40 -121 l0 -89 45 0 45 0 0 105 c0 117 -11 153 -55 173 -34 16 -54 15 -87 -2
-24 -13 -28 -13 -28 0 0 10 -12 14 -45 14 l-45 0 0 -145z"/>
<path d="M2773 2323 c-27 -5 -73 -47 -73 -67 0 -19 79 -33 90 -16 11 18 64 8
68 -12 3 -15 -4 -18 -40 -18 -85 0 -140 -50 -124 -113 12 -49 98 -74 143 -42
19 13 22 13 27 0 3 -10 19 -15 46 -15 l40 0 0 113 c0 105 -2 115 -22 135 -40
37 -89 48 -155 35z m87 -182 c0 -28 -60 -45 -75 -21 -14 22 4 40 40 40 28 0
35 -4 35 -19z"/>
<path d="M3073 2315 c-71 -31 -98 -146 -50 -216 45 -67 151 -77 209 -19 41 42
38 67 -11 72 -29 2 -42 -1 -50 -14 -13 -21 -51 -24 -69 -6 -16 16 -16 90 0
106 18 18 56 14 70 -7 9 -15 19 -18 47 -14 50 8 53 14 31 51 -34 56 -111 76
-177 47z"/>
<path d="M2180 1455 l0 -195 40 0 40 0 0 115 c0 63 3 115 8 115 4 0 17 -18 30
-40 31 -55 62 -55 93 0 13 22 26 40 31 40 4 0 8 -52 8 -115 l0 -115 40 0 40 0
0 195 0 195 -40 0 c-39 0 -42 -2 -82 -66 -47 -75 -44 -76 -100 20 -25 43 -30
46 -68 46 l-40 0 0 -195z"/>
<path d="M2644 1536 c-52 -23 -74 -61 -74 -126 0 -70 28 -118 82 -138 45 -18
117 -9 150 18 l23 18 -24 26 c-18 19 -28 23 -42 16 -28 -16 -76 -12 -95 8 -17
16 -13 17 80 20 l97 3 -7 37 c-15 80 -52 120 -121 128 -21 2 -52 -2 -69 -10z
m94 -88 c3 -15 -4 -18 -37 -18 -39 0 -53 14 -34 34 14 14 68 1 71 -16z"/>
</g>
</svg>
